Coordinates
version=1
nRows=8
nColumns=63
inDegrees=yes

Units are S.I. units (second, meters, Newtons, ...)
If the header above contains a line with 'inDegrees', this indicates whether rotational values are in degrees (yes) or radians (no).

endheader
time	pelvis_tilt	pelvis_list	pelvis_rotation	pelvis_tx	pelvis_ty	pelvis_tz	hip_flexion_r	hip_adduction_r	hip_rotation_r	knee_angle_r	knee_angle_r_beta	ankle_angle_r	subtalar_angle_r	mtp_angle_r	hip_flexion_l	hip_adduction_l	hip_rotation_l	knee_angle_l	knee_angle_l_beta	ankle_angle_l	subtalar_angle_l	mtp_angle_l	L5_S1_Flex_Ext	L5_S1_Lat_Bending	L5_S1_axial_rotation	L4_L5_Flex_Ext	L4_L5_Lat_Bending	L4_L5_axial_rotation	L3_L4_Flex_Ext	L3_L4_Lat_Bending	L3_L4_axial_rotation	L2_L3_Flex_Ext	L2_L3_Lat_Bending	L2_L3_axial_rotation	L1_L2_Flex_Ext	L1_L2_Lat_Bending	L1_L2_axial_rotation	L1_T12_Flex_Ext	L1_T12_Lat_Bending	L1_T12_axial_rotation	Abs_r3	Abs_r2	Abs_r1	Abs_t1	Abs_t2	neck_flexion	neck_bending	neck_rotation	arm_flex_r	arm_add_r	arm_rot_r	elbow_flex_r	pro_sup_r	wrist_flex_r	wrist_dev_r	arm_flex_l	arm_add_l	arm_rot_l	elbow_flex_l	pro_sup_l	wrist_flex_l	wrist_dev_l
3.796610	-2.813417	1.099276	92.484023	0.168581	0.811665	0.712310	-1.869895	1.733101	-4.829775	13.310617	0.232314	36.270216	-4.302120	0.000000	-5.370285	-0.003200	17.916478	4.879203	0.085158	32.726588	-14.627570	0.000000	0.073841	-0.071708	-1.220566	0.137130	-0.095372	-1.296852	0.121313	-0.174352	-1.296852	0.084393	-0.174352	-1.067996	0.068569	-0.146228	-0.991710	0.042193	-0.111076	-0.915425	0.527439	-0.811180	-6.788424	0.000000	0.000000	9.694366	-2.144504	2.904124	117.058851	-54.354273	27.788515	98.606397	72.307027	0.232990	-0.555637	72.952194	-70.098742	-15.428445	121.695160	55.165780	7.522004	5.387401
3.813559	-2.666009	0.920695	92.345357	0.168502	0.810424	0.713417	-1.434892	1.878293	-4.451104	13.627706	0.237848	36.425292	-4.807391	0.000000	-4.972098	-0.081323	17.867754	5.287918	0.092292	32.875751	-14.994676	0.000000	0.077458	-0.073702	-1.150144	0.143848	-0.098024	-1.222028	0.127256	-0.179200	-1.222028	0.088527	-0.179200	-1.006376	0.071928	-0.150294	-0.934492	0.044260	-0.114165	-0.862608	0.553277	-0.833734	-6.396755	0.000000	0.000000	10.103024	-1.576995	1.809929	105.266090	-55.685269	15.785792	106.493790	69.938259	4.706341	1.167144	56.522796	-68.261335	-28.376121	127.595030	60.133331	9.734377	6.645882
3.830508	-2.522803	0.753113	92.214353	0.168517	0.809087	0.714515	-0.969348	2.034881	-4.008168	14.000120	0.244348	36.632502	-5.339883	0.000000	-4.579449	-0.164516	17.774583	5.695939	0.099413	33.057385	-15.296356	0.000000	0.082058	-0.078495	-1.056029	0.152390	-0.104399	-1.122031	0.134813	-0.190853	-1.122031	0.093784	-0.190853	-0.924025	0.076199	-0.160068	-0.858024	0.046888	-0.121589	-0.792022	0.586133	-0.887954	-5.873316	0.000000	0.000000	10.584723	-1.087819	0.590179	92.626708	-56.058680	3.587681	113.906950	67.038803	10.141199	3.212192	40.653566	-65.329027	-39.356508	132.249739	64.929814	11.137373	7.230634
3.847458	-2.402882	0.616534	92.094416	0.168600	0.807714	0.715632	-0.494246	2.175494	-3.546359	14.432404	0.251893	36.899029	-5.838394	0.000000	-4.215076	-0.233477	17.633245	6.092947	0.106342	33.255429	-15.518292	0.000000	0.084330	-0.086584	-0.951074	0.156609	-0.115157	-1.010516	0.138546	-0.210521	-1.010516	0.096381	-0.210521	-0.832189	0.078309	-0.176562	-0.772747	0.048186	-0.134119	-0.713305	0.602361	-0.979456	-5.289586	0.000000	0.000000	11.130331	-0.670650	-0.623262	79.418345	-55.424654	-8.276342	120.537261	63.735408	16.239313	5.291575	25.909031	-61.352242	-48.069075	135.420026	69.121234	11.863737	7.208920
3.864407	-2.274430	0.489403	91.986848	0.168726	0.806331	0.716778	-0.000389	2.337369	-3.016970	14.887920	0.259843	37.171981	-6.381295	0.000000	-3.853158	-0.317526	17.489341	6.470524	0.112932	33.453820	-15.745203	0.000000	0.087952	-0.093075	-0.834792	0.163335	-0.123790	-0.886967	0.144496	-0.226303	-0.886967	0.100520	-0.226303	-0.730443	0.081672	-0.189799	-0.678269	0.050256	-0.144173	-0.626094	0.628229	-1.052885	-4.642863	0.000000	0.000000	11.768546	-0.370645	-1.789520	65.816442	-53.864634	-19.568968	126.294465	61.153602	21.871924	7.310777	12.791695	-56.419668	-54.458489	136.841244	72.968024	11.997780	6.589208
3.881356	-2.138833	0.375559	91.898536	0.168864	0.804999	0.717918	0.485828	2.512271	-2.485548	15.333384	0.267618	37.454933	-6.882414	0.000000	-3.502874	-0.416127	17.333119	6.815663	0.118956	33.657816	-15.944942	0.000000	0.092717	-0.097221	-0.710749	0.172184	-0.129304	-0.755171	0.152324	-0.236384	-0.755171	0.105966	-0.236384	-0.621905	0.086097	-0.198254	-0.577484	0.052978	-0.150596	-0.533062	0.662266	-1.099788	-3.952973	0.000000	0.000000	12.473801	-0.205807	-2.882594	52.250254	-51.473346	-29.628753	130.985627	59.473424	26.205947	9.067393	1.864587	-50.731635	-58.471973	136.282373	76.496254	11.624765	5.445132
3.898305	-2.045102	0.283799	91.875390	0.169063	0.803758	0.719022	0.932256	2.651074	-2.028625	15.746095	0.274821	37.767013	-7.310057	0.000000	-3.183343	-0.490308	17.173713	7.106171	0.124026	33.845082	-16.061510	0.000000	0.094874	-0.108501	-0.598167	0.176191	-0.144307	-0.635553	0.155869	-0.263810	-0.635553	0.108432	-0.263810	-0.523397	0.088100	-0.221256	-0.486011	0.054211	-0.168068	-0.448626	0.677677	-1.227388	-3.326828	0.000000	0.000000	13.300027	-0.049923	-3.962083	39.277172	-48.366798	-37.912915	134.368782	58.532445	29.094414	10.397444	-6.335517	-44.627723	-60.213758	133.644863	79.738793	10.659843	3.842147
3.915254	-2.036497	0.213136	91.923140	0.169461	0.802611	0.720089	1.334465	2.728663	-1.568618	16.130052	0.281523	38.107851	-7.750529	0.000000	-2.896503	-0.503564	17.040921	7.342992	0.128159	34.010984	-16.131625	0.000000	0.095528	-0.135146	-0.499965	0.177405	-0.179744	-0.531213	0.156943	-0.328593	-0.531213	0.109179	-0.328593	-0.437470	0.088707	-0.275589	-0.406222	0.054585	-0.209341	-0.374974	0.682346	-1.528796	-2.780657	0.000000	0.000000	14.185049	0.139598	-5.120573	27.173441	-44.614838	-44.496269	136.320167	58.709488	30.285193	11.691876	-11.811776	-38.900990	-64.615847	129.635480	87.050875	8.880611	2.792222
